<svg xmlns="http://www.w3.org/2000/svg" width="189" height="222" viewBox="0 0 189 222" version="1.1">
	<path d="M 70.819 8.502 C 70.445 8.883, 66.213 9.309, 61.415 9.448 C 55.249 9.627, 52.370 10.122, 51.596 11.137 C 50.993 11.927, 49.754 12.419, 48.843 12.231 C 47.932 12.043, 46.893 12.364, 46.534 12.945 C 46.175 13.525, 43.449 14, 40.476 14 C 36.226 14, 34.857 14.398, 34.073 15.863 C 33.525 16.887, 31.709 18.292, 30.038 18.984 C 28.367 19.676, 26.944 20.863, 26.875 21.621 C 26.806 22.380, 26.694 24.314, 26.625 25.919 C 26.500 28.843, 22.622 34, 20.548 34 C 18.886 34, 14 39.954, 14 41.980 C 14 42.956, 13.334 44.308, 12.521 44.983 C 10.176 46.929, 7.901 52.169, 8.868 53.400 C 10.953 56.056, 10.683 64.312, 8.325 70 C 6.866 73.518, 9.869 80.385, 14.666 84.500 C 15.307 85.050, 15.982 86.350, 16.166 87.389 C 16.350 88.427, 18.986 91.447, 22.025 94.099 L 27.551 98.921 31.859 97.437 C 34.838 96.410, 37.145 96.218, 39.334 96.813 C 41.689 97.454, 43.525 97.210, 46.500 95.863 C 48.789 94.827, 52.887 94.041, 56.081 94.026 C 61.024 94.003, 61.815 94.286, 63 96.500 C 64.070 98.499, 65.106 99, 68.169 99 C 72.520 99, 72.630 99.351, 70.489 106.409 C 67.357 116.735, 69.116 123.480, 77.042 131.528 C 80.943 135.490, 82.315 137.788, 83.506 142.360 C 84.924 147.805, 84.902 148.309, 83.156 150.528 C 82.133 151.829, 80.738 155.524, 80.055 158.739 C 78.742 164.928, 78.745 164.939, 84.465 176 C 85.176 177.375, 86.071 181.518, 86.454 185.206 C 86.933 189.825, 88.215 194.027, 90.572 198.706 C 92.454 202.443, 93.995 206.985, 93.997 208.800 L 94 212.099 100.250 211.465 C 112.172 210.255, 115.994 208.121, 122.159 199.234 L 125.118 194.968 131.749 198.676 C 141.886 204.345, 151.339 203.554, 152.665 196.926 C 153.028 195.112, 154.372 193.302, 156.129 192.265 C 157.708 191.332, 159 189.798, 159 188.857 C 159 187.915, 160.179 186.218, 161.620 185.084 C 163.499 183.606, 164.081 182.417, 163.678 180.877 C 163.099 178.662, 165.787 175.287, 170.987 171.696 L 173.475 169.979 171.117 163.405 C 168.064 154.893, 168.611 150.936, 173.918 143.121 C 176.259 139.674, 178.421 135.068, 178.898 132.514 C 180.397 124.494, 177.343 114.482, 170.942 106.427 C 169.324 104.391, 168 102.393, 168 101.987 C 168 101.582, 169.575 97.794, 171.500 93.569 C 173.425 89.345, 175 85.328, 175 84.641 C 175 83.661, 173.415 83.700, 167.602 84.826 C 161.305 86.045, 159.743 86.054, 157.102 84.885 C 154.493 83.730, 153.996 82.955, 153.976 80.006 C 153.957 77.095, 153.282 76.003, 149.995 73.572 C 147.554 71.766, 145.600 69.276, 144.896 67.072 C 144.268 65.108, 142.946 62.600, 141.958 61.500 C 140.970 60.400, 139.840 57.756, 139.446 55.625 C 139.053 53.493, 137.891 51.031, 136.865 50.153 C 135.839 49.274, 135 47.972, 135 47.259 C 135 45.668, 129.469 35.176, 127.460 32.956 C 126.657 32.069, 125.993 30.478, 125.985 29.421 C 125.976 28.365, 125.561 26.854, 125.061 26.064 C 124.312 24.880, 123.879 24.856, 122.590 25.925 C 121.562 26.778, 119.739 27, 117.264 26.573 C 115.194 26.216, 112.376 25.900, 111.003 25.871 C 109.630 25.843, 108.280 25.522, 108.002 25.160 C 107.008 23.858, 101.037 21.133, 100.661 21.809 C 100.449 22.189, 99.993 23.688, 99.647 25.140 C 99.301 26.592, 98.371 28.027, 97.582 28.330 C 95.733 29.040, 86.141 25.547, 84.645 23.620 C 84.015 22.808, 81.536 21.630, 79.135 21.003 C 73.659 19.570, 69.293 15.556, 70.989 13.513 C 72.192 12.063, 72.030 7.271, 70.819 8.502" stroke="none" fill="black" fill-rule="evenodd"/>
</svg>